    <svg version="1.1" id="Layer_1" xmlns="http://www.w3.org/2000/svg" xmlns:xlink="http://www.w3.org/1999/xlink" x="0px" y="0px"
     width="98px" height="100px"  xml:space="preserve">
     <defs>
<linearGradient id="grean_blue1" x1="0%" y1="0%" x2="0%" y2="100%">
<stop offset="0%" style="stop-color:#79cfe3;
stop-opacity:1"/>
<stop offset="100%" style="stop-color:#9bf6ea;
stop-opacity:1"/>
</linearGradient>
<linearGradient id="grean_blue2" x1="0%" y1="0%" x2="0%" y2="100%">
<stop offset="0%" style="stop-color:#6ac4e8;
stop-opacity:1"/>
<stop offset="100%" style="stop-color:#b1f4cf;
stop-opacity:1"/>
</linearGradient>
</defs>
<path fill="#FFFFFF" d="M85.715,26.547h-7.457c1.711-5.512,0.539-11.744-3.043-15.975c-3.587-4.236-9.158-6.766-14.896-6.766
    c-4.109,0-7.852,1.29-10.733,3.6c-3.045-4.6-9.469-7.03-15.613-7.03c-7.055,0-14.166,3.225-16.001,10.323
    c-1.147-0.196-2.492-0.347-3.91-0.347c-8.456,0-13.503,5.16-13.846,14.155c-0.185,4.844,1.047,8.677,3.662,11.394
    c1.359,1.413,3.049,2.442,4.988,3.094v48.546c0,6.663,5.421,12.083,12.083,12.083h43.364c6.662,0,12.084-5.42,12.084-12.083v-9.373
    c0,0,0,0.001,0.002,0.001c0.006,0,0.013-0.007,0.018-0.008l9.305,0.004c6.661,0,12.084-5.419,12.084-12.083V38.63
    C97.799,31.968,92.378,26.547,85.715,26.547z"/>
<path fill="none" d="M85.715,32.589H75.023v-0.178c-2.688,3-6.535,4.606-11.271,4.606c-4.216,0-8.304-1.251-10.778-2.189
    c-2.216,2.709-6.748,6.943-13.577,7.167c-0.236,0.008-0.467,0.012-0.696,0.012c-6.706,0-10.612-3.162-12.737-5.904
    c-2.943,2.091-7.034,3.49-11.06,3.669V87.54c0,3.321,2.719,6.041,6.042,6.041h43.366c3.322,0,6.041-2.72,6.041-6.041v-9.376
    c0-3.322,2.723-6.041,6.043-6.041h9.318c3.322,0,6.043-2.719,6.043-6.042v-27.45C91.758,35.307,89.037,32.589,85.715,32.589z"/>
<path fill="none" d="M75.042,32.605h10.69c1.653,0,3.156,0.674,4.25,1.759c-1.096-1.095-2.606-1.775-4.268-1.775H75.041
    L75.042,32.605L75.042,32.605z"/>
<path fill="none" d="M39.416,42.01c6.829-0.225,11.361-4.458,13.576-7.167c2.476,0.938,6.562,2.188,10.777,2.188
    c4.727,0,8.567-1.6,11.254-4.588v-0.032c-2.688,3-6.535,4.606-11.271,4.606c-4.216,0-8.303-1.251-10.778-2.189
    c-2.216,2.709-6.748,6.943-13.577,7.167c-0.236,0.008-0.467,0.012-0.696,0.012c-4.608,0-7.895-1.493-10.189-3.317
    c2.295,1.831,5.586,3.332,10.207,3.332C38.949,42.022,39.18,42.018,39.416,42.01z"/>
<path fill="none" d="M14.923,87.557V39.788c4.025-0.18,8.114-1.577,11.056-3.667c-0.004-0.006-0.01-0.012-0.014-0.018
    c-2.943,2.091-7.034,3.49-11.06,3.669V87.54c0,1.669,0.688,3.186,1.792,4.281C15.603,90.727,14.923,89.217,14.923,87.557z"/>
<polygon fill="#b9eee5" points="80.162,59.326 80.162,45.717 75.939,45.717 75.939,59.33 80.162,59.33 "/>
<polygon fill="none" points="75.939,59.33 80.162,59.33 80.162,59.326 80.162,45.717 75.939,45.717 "/>
<g>
    <polygon  style="fill:url(#grean_blue1)" points="75.939,59.33 80.162,59.33 80.162,59.326 80.162,45.717 75.939,45.717     "/>
    <path style="fill:url(#grean_blue2)" d="M89.982,34.364c-1.094-1.085-2.597-1.759-4.25-1.759h-10.69h-0.001v-0.016h-0.018v-0.146
        c-2.687,2.988-6.527,4.588-11.254,4.588c-4.215,0-8.302-1.25-10.777-2.188c-2.215,2.709-6.747,6.942-13.576,7.167
        c-0.236,0.008-0.467,0.012-0.696,0.012c-4.621,0-7.912-1.501-10.207-3.332c-1.038-0.825-1.872-1.717-2.534-2.569
        c-2.942,2.09-7.031,3.487-11.056,3.667v47.769c0,1.66,0.68,3.17,1.774,4.265c1.094,1.086,2.597,1.76,4.25,1.76h43.366
        c3.322,0,6.041-2.72,6.041-6.041v-9.376c0-3.322,2.723-6.041,6.043-6.041h9.318c3.322,0,6.043-2.719,6.043-6.042v-27.45
        C91.758,36.97,91.078,35.459,89.982,34.364z M85.6,59.297c0.01,0.526-0.062,2.496-1.494,3.98c-0.656,0.681-1.832,1.492-3.692,1.492
        h-7.19c-1.502,0-2.721-1.219-2.721-2.72V42.999c0-1.502,1.219-2.719,2.721-2.719h7.03c1.979,0,3.205,0.814,3.884,1.498
        c1.405,1.417,1.467,3.22,1.463,3.567V59.297z"/>
</g>
</svg>