<?xml version="1.0" standalone="no"?><!DOCTYPE svg PUBLIC "-//W3C//DTD SVG 1.1//EN" "http://www.w3.org/Graphics/SVG/1.1/DTD/svg11.dtd"><svg t="1551597853701" class="icon" style="" viewBox="0 0 1024 1024" version="1.1" xmlns="http://www.w3.org/2000/svg" p-id="1812" xmlns:xlink="http://www.w3.org/1999/xlink" width="250" height="250"><defs><style type="text/css"></style></defs><path d="M0 513.28a512 512 0 1 0 0-2.56z m0 0" fill="#f53d47" p-id="1813"></path><path d="M73.386667 512a439.893333 439.893333 0 1 0 128-309.76 439.68 439.68 0 0 0-128 309.76z m0 0" fill="#FFD08B" p-id="1814"></path><path d="M489.173333 281.386667h49.92v55.04h49.92a296.106667 296.106667 0 0 0 27.733334-53.546667l46.08 16.426667a146.56 146.56 0 0 1-21.333334 36.693333h85.333334v105.386667h-47.36v-64H350.72v64h-48v-104.533334h88.533333a149.333333 149.333333 0 0 0-25.813333-35.2l44.373333-16.64a209.493333 209.493333 0 0 1 30.08 51.84h48l2.773334-55.04z m51.84 302.933333c-7.466667 57.386667-21.333333 93.866667-44.16 112.213333-24.106667 24.106667-83.2 38.826667-175.786666 46.293334l-20.053334-42.666667c77.44-3.626667 128-12.8 153.173334-31.146667a119.68 119.68 0 0 0 38.826666-88.746666z m132.906667-61.013333V661.333333h-46.293333v-96H403.2v101.546667h-46.933333v-143.573333zM385.066667 405.333333h260.266666v97.92h-260.266666z m215.893333 64v-30.933333h-169.173333V469.333333z m-54.4 184.746667A1536 1536 0 0 1 725.333333 704l-25.6 41.173333a1013.333333 1013.333333 0 0 0-175.36-55.04z m0 0" fill="#f53d47" p-id="1815"></path></svg>